<?xml version="1.0" encoding="utf-8"?>
<!-- Generator: Adobe Illustrator 23.0.3, SVG Export Plug-In . SVG Version: 6.00 Build 0)  -->
<svg version="1.1" id="Layer_1" xmlns="http://www.w3.org/2000/svg" xmlns:xlink="http://www.w3.org/1999/xlink" x="0px" y="0px"
	 viewBox="0 0 150 150" style="enable-background:new 0 0 150 150;" xml:space="preserve">
<style type="text/css">
	.st0{fill:#2DABE2;}
	.st1{fill:#ED118A;}
	.st2{opacity:0.9;fill:#322F82;}
	.st3{opacity:0.9;}
	.st4{fill:#322F82;}
</style>
<g>
	<path class="st0" d="M69.5,135.8c-17.7,0-34.4-6.9-47-19.5S3.1,87.2,3.1,69.4c0-17.7,6.9-34.4,19.5-47S51.8,3,69.5,3
		s34.4,6.9,47,19.5s19.5,29.2,19.5,47c0,17.7-6.9,34.4-19.5,47C103.9,128.9,87.3,135.8,69.5,135.8z M69.5,9
		C36.2,9,9.1,36.1,9.1,69.4s27.1,60.5,60.5,60.5c33.3,0,60.5-27.1,60.5-60.5S102.9,9,69.5,9z"/>
	<path class="st1" d="M80.5,133.2c-17.7,0-34.4-6.9-47-19.5c-12.5-12.5-19.5-29.2-19.5-47c0-17.7,6.9-34.4,19.5-47
		s29.2-19.5,47-19.5c17.7,0,34.4,6.9,47,19.5c12.5,12.5,19.5,29.2,19.5,47c0,17.7-6.9,34.4-19.5,47
		C114.9,126.3,98.2,133.2,80.5,133.2z M80.5,6.3C47.1,6.3,20,33.4,20,66.8c0,33.3,27.1,60.5,60.5,60.5s60.5-27.1,60.5-60.5
		C140.9,33.4,113.8,6.3,80.5,6.3z"/>
	<path class="st2" d="M71.5,149.6c-17.7,0-34.4-6.9-47-19.5C12,117.6,5.1,101,5.1,83.2c0-17.7,6.9-34.4,19.5-47s29.2-19.5,47-19.5
		s34.4,6.9,47,19.5C131,48.8,138,65.5,138,83.2c0,17.7-6.9,34.4-19.5,47C106,142.7,89.3,149.6,71.5,149.6z M71.5,22.8
		c-33.3,0-60.5,27.1-60.5,60.5s27.1,60.5,60.5,60.5c33.3,0,60.5-27.1,60.5-60.5S104.9,22.8,71.5,22.8z"/>
</g>
<g class="st3">
	<path class="st4" d="M103.3,103.3L103.3,103.3L103.3,103.3l0-20.8c0-10.2-2.2-18-14.1-18c-5.7,0-9.5,3.1-11.1,6.1H78v-5.2H66.7
		v37.8h11.7V84.6c0-4.9,0.9-9.7,7-9.7c6,0,6.1,5.6,6.1,10v18.4H103.3z"/>
	<path class="st4" d="M47.6,65.5h11.7v37.8H47.6V65.5z"/>
	<path class="st4" d="M53.5,46.7c-3.8,0-6.8,3-6.8,6.8s3,6.9,6.8,6.9s6.8-3.1,6.8-6.9C60.3,49.7,57.2,46.7,53.5,46.7z"/>
</g>
</svg>
